<svg width="60" height="30" viewBox="0 0 60 30" fill="none" xmlns="http://www.w3.org/2000/svg">
<path d="M45.7146 1.00436C45.4509 1.07905 45.1873 1.21966 45.0643 1.35148C44.9764 1.44375 44.972 1.47012 45.0159 1.58436C45.095 1.77769 45.0818 2.50269 44.9939 2.83224C44.8533 3.35951 44.348 4.91057 44.0361 5.77618C43.7461 6.57148 43.3199 7.65239 41.7908 11.4444C40.8329 13.8259 40.2265 15.5527 39.8399 17.0247C39.7036 17.5388 39.6817 17.6881 39.6773 18.1451C39.6729 18.5977 39.6861 18.7075 39.7739 18.9272C39.9058 19.248 40.2133 19.5688 40.5649 19.7445C41.8435 20.3904 43.5923 19.85 45.1785 18.3253L45.697 17.8244L45.8376 18.1847C46.0177 18.6416 46.3517 19.1557 46.6417 19.415C47.4458 20.1356 48.9133 20.2718 50.0382 19.7313C50.4732 19.5204 50.9433 19.1865 51.5102 18.6812L51.9979 18.2506V18.4175C51.9979 18.5098 51.9583 18.7295 51.91 18.9097C51.6639 19.7841 51.1806 20.3684 49.7833 21.4581C49.0188 22.0557 48.1444 22.8554 47.2964 23.7298C45.6618 25.4171 44.9764 26.7397 45.073 28.0007C45.1389 28.8663 45.5036 29.4375 46.1847 29.7583C46.4088 29.8638 46.5011 29.8769 46.9932 29.8901C47.6083 29.9077 48.0082 29.833 48.452 29.6089C49.2649 29.2003 50.1085 28.2907 50.9609 26.9022C51.6508 25.7774 52.055 24.9118 52.7668 23.0224C53.6939 20.5706 54.0015 19.8851 54.3003 19.6391C55.0693 19.0107 56.5544 18.9009 57.4947 19.4018C57.833 19.5819 58.1626 19.9203 58.3076 20.2278C58.4789 20.6057 58.4833 20.6057 58.5844 20.6189C58.7118 20.6409 58.8832 20.4827 58.9886 20.2542C59.0502 20.118 59.0721 19.973 59.0721 19.6259C59.0721 19.2304 59.0589 19.1425 58.9623 18.9404C58.8173 18.6372 58.4394 18.2813 58.0923 18.1231C57.3277 17.776 56.4533 17.8463 55.1176 18.356C54.8408 18.4659 54.6079 18.5494 54.6035 18.545C54.5991 18.5406 55.2186 16.8884 55.9788 14.8716C57.2618 11.4795 57.3673 11.1763 57.3893 10.8556C57.442 10.1525 57.2047 9.61648 56.7389 9.37921C56.3611 9.18587 55.5702 9.15951 55.1879 9.33087C54.9638 9.42754 54.7836 9.63405 54.7221 9.86693C54.6958 9.9636 54.6343 10.2712 54.5903 10.5568C54.4849 11.1895 54.397 11.4795 54.0323 12.411C53.5006 13.76 52.7009 15.3198 51.9759 16.4095C51.1191 17.6925 50.4996 18.2945 49.5593 18.7471C48.9441 19.0415 48.5618 18.9975 48.3289 18.6021C48.2015 18.3868 48.2103 17.7541 48.3465 17.2224C48.4871 16.6819 48.6409 16.2997 49.3308 14.731C50.4073 12.2968 50.6929 11.4312 50.6973 10.6095C50.7017 10.2272 50.6841 10.113 50.6094 9.94602C50.2667 9.20784 49.2297 8.99693 48.2323 9.46269C47.9511 9.59451 47.9511 9.5989 47.973 9.75269C47.9906 9.83618 48.0082 9.97239 48.0214 10.0559C48.0785 10.4294 47.8808 11.1807 47.3139 12.7098C46.4439 15.043 45.4158 16.9675 44.5985 17.798C44.1371 18.2638 43.8823 18.3956 43.4033 18.4219C43.0562 18.4395 43.0474 18.4395 42.8936 18.3033C42.4718 17.9342 42.5597 17.2004 43.2935 15.0034C43.7153 13.738 44.1767 12.5516 45.1741 10.1481C46.4483 7.08117 46.712 6.40451 47.3227 4.63375C47.8017 3.24087 47.8764 2.95087 47.8852 2.45875C47.8896 1.89193 47.8193 1.68102 47.5161 1.37345C47.3096 1.17133 47.2173 1.10981 46.9712 1.03511C46.6285 0.929661 46.0397 0.916479 45.7146 1.00436ZM50.4776 22.9433C49.4055 25.5313 48.6761 26.8539 47.8939 27.6404C47.4238 28.1106 47.1162 28.2819 46.7032 28.3083C46.4835 28.3215 46.4176 28.3083 46.3165 28.2292C45.8244 27.8425 46.0002 26.8715 46.7471 25.8345C47.5161 24.7624 48.9089 23.3168 50.1524 22.2974C50.4732 22.0338 50.8994 21.7569 50.9346 21.7921C50.9433 21.8009 50.7368 22.3194 50.4776 22.9433Z" fill="#5F0080"/>
<path d="M8.56379 1.0527C7.09621 1.32512 5.82636 1.91391 4.58727 2.90254C4.05561 3.32436 3.01424 4.3877 2.51773 5.00724C1.26545 6.56709 0.483333 8.07861 0.12303 9.62527C0.0131818 10.0866 0 10.2316 0 10.8951C0 11.6904 0.070303 12.0859 0.285606 12.5297C0.408636 12.7801 0.711818 13.0789 0.971061 13.2063C1.25227 13.3425 1.70485 13.3733 1.91136 13.2678C2.20136 13.1228 2.44303 12.8153 2.48258 12.5516C2.49576 12.4638 2.46939 12.4374 2.33318 12.3891C1.60818 12.1386 1.30939 11.3169 1.42364 9.88891C1.49833 8.95739 1.67409 8.35542 2.13545 7.42391C2.42545 6.83512 2.9703 5.99149 3.42727 5.42467C3.87106 4.87103 4.76303 3.99664 5.31227 3.588C6.23061 2.89815 7.37303 2.43679 8.15955 2.43679C8.56379 2.43679 8.73076 2.52027 8.89773 2.80588C9.09985 3.16179 9.08227 3.40345 8.76152 4.42285C8.22985 6.11891 7.7597 7.4327 6.51182 10.6754C4.94318 14.7574 4.35879 16.4447 3.80076 18.501C3.61182 19.2085 3.58985 19.3842 3.66894 19.7577C3.86227 20.6672 4.55212 21.1813 5.57591 21.1682C5.90546 21.1682 6.33606 21.1022 6.54697 21.0232L6.63924 20.988L6.52939 20.6628C6.32727 20.0785 6.34485 19.2216 6.57333 18.3428C6.92485 16.9763 8.01894 13.8786 8.30894 13.4348C8.49788 13.1404 8.80546 12.9822 9.18333 12.9822H9.36788L9.65349 13.6062C9.80727 13.9533 10.15 14.7178 10.4136 15.311C11.7582 18.3604 12.8127 20.1048 14.043 21.3307C14.9789 22.2622 15.9017 22.7675 17.0749 22.996C18.6611 23.3036 20.1067 23.0312 21.315 22.2007C21.6753 21.9547 22.5145 21.1594 22.5145 21.0671C22.5145 21.0363 22.475 20.9441 22.4223 20.865L22.3344 20.72L22.04 20.9221C21.6358 21.1989 20.9371 21.5328 20.5153 21.6471C20.032 21.7789 18.995 21.7877 18.538 21.6647C17.4527 21.3703 16.4597 20.6585 15.6556 19.5863C14.9526 18.6548 14.0738 17.0203 13.1994 15.0254C12.9753 14.5157 12.5974 13.6677 12.3558 13.136C12.1141 12.6044 11.9164 12.1562 11.912 12.1342C11.9076 12.1166 12.3206 11.8706 12.8259 11.5938C14.8164 10.4953 16.0994 9.69558 17.11 8.91346C17.8042 8.38179 19.0389 7.1383 19.3817 6.633C20.2033 5.41588 20.3879 4.54588 19.9177 4.0933C19.575 3.77254 19.3202 3.91755 18.9203 4.66891C18.6479 5.17861 18.393 5.50376 17.7691 6.1277C15.9017 7.99952 12.9314 9.74391 9.79849 10.8116C9.55682 10.8951 9.3547 10.9522 9.34152 10.9391C9.31076 10.9083 9.46894 10.2624 9.62712 9.77467C9.71061 9.51982 10.0577 8.61906 10.3961 7.77542C11.3979 5.26649 11.6879 4.31739 11.7362 3.35951C11.7758 2.56861 11.6308 2.07209 11.2441 1.65027C10.9673 1.35588 10.6114 1.14936 10.2071 1.0527C9.86 0.973606 8.9944 0.973606 8.56379 1.0527Z" fill="#5F0080"/>
<path d="M20.8888 9.22981C20.6471 9.27814 20.2824 9.39238 20.0495 9.49784L19.7991 9.60769L19.8211 10.1394C19.8562 11.0269 19.7112 11.5806 18.8676 13.7292C18.0679 15.7636 17.9097 16.3436 17.8701 17.3366C17.8438 18.0704 17.9009 18.4439 18.1162 18.9009C18.6171 19.9554 19.9045 20.3069 21.4073 19.806C22.2157 19.538 22.9627 19.0766 23.5515 18.4878C23.7712 18.2725 23.9294 18.1407 23.9382 18.1759C23.947 18.2066 23.9821 18.3297 24.0129 18.4527C24.2941 19.5863 25.1685 20.1751 26.3417 20.0213C27.2468 19.8983 28.2926 19.4062 29.1318 18.7031L29.3998 18.4791L29.4262 18.7075C29.5097 19.4237 29.9007 19.8807 30.5511 20.0169C30.863 20.0828 31.4914 20.0477 31.7198 19.951C32.1021 19.7884 32.2251 19.5731 32.4009 18.7647C32.7261 17.2619 33.7982 14.9112 34.7517 13.615C35.5821 12.4857 36.8915 11.6025 37.6341 11.6728C37.9109 11.6992 38.0559 11.8047 38.1658 12.0507C38.2448 12.2221 38.2536 12.31 38.2317 12.6922C38.2141 12.9383 38.1921 13.1887 38.1745 13.2547C38.1482 13.3733 38.1526 13.3777 38.3195 13.3777C38.7721 13.3777 39.418 13.1009 39.8267 12.7318C40.7538 11.8881 40.9867 10.5787 40.3364 9.87132C39.9936 9.49344 39.3565 9.29572 38.6623 9.35284C37.7483 9.42314 37.2254 9.73511 35.9029 11.005C35.4942 11.396 35.1515 11.708 35.1427 11.6992C35.1339 11.686 35.1559 11.5322 35.1954 11.3521C35.4195 10.3107 35.1515 9.5286 34.4968 9.3089C33.93 9.11557 32.8447 9.29572 32.647 9.61208C32.6118 9.6692 32.5767 9.89329 32.5591 10.1701C32.4756 11.7212 30.9377 15.4736 29.7294 17.095C29.2285 17.7584 28.6353 18.2242 27.9762 18.4571C27.6247 18.5801 27.2292 18.5933 27.0359 18.4922C26.7591 18.3516 26.6668 17.8903 26.7986 17.2795C26.8865 16.8445 27.0754 16.326 27.7082 14.7398C28.6529 12.3715 28.9297 11.44 28.9297 10.5919C28.9297 10.0603 28.8286 9.75708 28.5738 9.53738C28.3717 9.36602 27.9982 9.24738 27.6686 9.24738C27.4226 9.24738 26.8426 9.34844 26.4823 9.4495C26.2757 9.51102 26.2494 9.5286 26.2494 9.63405C26.2494 9.69996 26.2801 9.84935 26.3153 9.97238C26.3768 10.1657 26.3768 10.2316 26.3153 10.5875C26.1088 11.8003 25.2827 13.9665 24.3161 15.8295C23.7185 16.9851 23.2615 17.6047 22.6595 18.0836C21.7456 18.813 20.9415 18.8877 20.6251 18.2769C20.5373 18.1012 20.5153 17.9869 20.5021 17.6222C20.4714 16.8269 20.6735 16.0975 21.4951 14.0148C22.0927 12.4945 22.2245 12.1254 22.3871 11.4971C22.5365 10.9171 22.5585 10.3591 22.4442 10.0251C22.352 9.74829 22.0839 9.4539 21.8159 9.34405C21.605 9.25178 21.1041 9.19026 20.8888 9.22981Z" fill="#5F0080"/>
</svg>
