<svg width="60" height="29" viewBox="0 0 60 29" fill="none" xmlns="http://www.w3.org/2000/svg">
<path d="M45.7146 0.0580692C45.4509 0.132765 45.1873 0.273371 45.0643 0.40519C44.9764 0.497463 44.972 0.523827 45.0159 0.638069C45.095 0.831402 45.0818 1.5564 44.9939 1.88595C44.8533 2.41322 44.348 3.96428 44.0361 4.82989C43.7461 5.62519 43.3199 6.7061 41.7908 10.4981C40.8329 12.8796 40.2265 14.6064 39.8399 16.0784C39.7036 16.5925 39.6817 16.7419 39.6773 17.1988C39.6729 17.6514 39.6861 17.7613 39.7739 17.9809C39.9058 18.3017 40.2133 18.6225 40.5649 18.7982C41.8435 19.4441 43.5923 18.9037 45.1785 17.379L45.697 16.8781L45.8376 17.2384C46.0177 17.6953 46.3517 18.2094 46.6417 18.4687C47.4458 19.1893 48.9133 19.3255 50.0382 18.785C50.4732 18.5741 50.9433 18.2402 51.5102 17.7349L51.9979 17.3043V17.4713C51.9979 17.5635 51.9583 17.7832 51.91 17.9634C51.6639 18.8378 51.1806 19.4222 49.7833 20.5119C49.0188 21.1094 48.1444 21.9091 47.2964 22.7835C45.6618 24.4708 44.9764 25.7934 45.073 27.0544C45.1389 27.92 45.5036 28.4912 46.1847 28.812C46.4088 28.9175 46.5011 28.9306 46.9932 28.9438C47.6083 28.9614 48.0082 28.8867 48.452 28.6626C49.2649 28.254 50.1085 27.3444 50.9609 25.9559C51.6508 24.8311 52.055 23.9655 52.7668 22.0761C53.6939 19.6243 54.0015 18.9388 54.3003 18.6928C55.0693 18.0644 56.5544 17.9546 57.4947 18.4555C57.833 18.6356 58.1626 18.974 58.3076 19.2816C58.4789 19.6594 58.4833 19.6594 58.5844 19.6726C58.7118 19.6946 58.8832 19.5364 58.9886 19.3079C59.0502 19.1717 59.0721 19.0267 59.0721 18.6796C59.0721 18.2841 59.0589 18.1962 58.9623 17.9941C58.8173 17.6909 58.4394 17.335 58.0923 17.1769C57.3277 16.8297 56.4533 16.9 55.1176 17.4097C54.8408 17.5196 54.6079 17.6031 54.6035 17.5987C54.5991 17.5943 55.2186 15.9422 55.9788 13.9253C57.2618 10.5332 57.3673 10.23 57.3893 9.90928C57.442 9.20625 57.2047 8.67019 56.7389 8.43292C56.3611 8.23958 55.5702 8.21322 55.1879 8.38458C54.9638 8.48125 54.7836 8.68777 54.7221 8.92064C54.6958 9.01731 54.6343 9.32489 54.5903 9.61049C54.4849 10.2432 54.397 10.5332 54.0323 11.4647C53.5006 12.8137 52.7009 14.3735 51.9759 15.4632C51.1191 16.7463 50.4996 17.3482 49.5593 17.8008C48.9441 18.0952 48.5618 18.0513 48.3289 17.6558C48.2015 17.4405 48.2103 16.8078 48.3465 16.2761C48.4871 15.7356 48.6409 15.3534 49.3308 13.7847C50.4073 11.3505 50.6929 10.4849 50.6973 9.66322C50.7017 9.28095 50.6841 9.1667 50.6094 8.99973C50.2667 8.26155 49.2297 8.05064 48.2323 8.5164C47.9511 8.64822 47.9511 8.65261 47.973 8.8064C47.9906 8.88989 48.0082 9.0261 48.0214 9.10958C48.0785 9.48307 47.8808 10.2344 47.3139 11.7635C46.4439 14.0967 45.4158 16.0213 44.5985 16.8517C44.1371 17.3175 43.8823 17.4493 43.4033 17.4756C43.0562 17.4932 43.0474 17.4932 42.8936 17.357C42.4718 16.9879 42.5597 16.2541 43.2935 14.0572C43.7153 12.7917 44.1767 11.6053 45.1741 9.20186C46.4483 6.13489 46.712 5.45822 47.3227 3.68746C47.8017 2.29458 47.8764 2.00458 47.8852 1.51246C47.8896 0.945644 47.8193 0.734735 47.5161 0.42716C47.3096 0.225039 47.2173 0.163523 46.9712 0.0888252C46.6285 -0.0166283 46.0397 -0.02981 45.7146 0.0580692ZM50.4776 21.997C49.4055 24.585 48.6761 25.9076 47.8939 26.6941C47.4238 27.1643 47.1162 27.3356 46.7032 27.362C46.4835 27.3752 46.4176 27.362 46.3165 27.2829C45.8244 26.8962 46.0002 25.9252 46.7471 24.8882C47.5161 23.8161 48.9089 22.3705 50.1524 21.3511C50.4732 21.0875 50.8994 20.8106 50.9346 20.8458C50.9433 20.8546 50.7368 21.3731 50.4776 21.997Z" fill="white"/>
<path d="M8.56379 0.106407C7.09621 0.378832 5.82636 0.967619 4.58727 1.95625C4.05561 2.37807 3.01424 3.44141 2.51773 4.06095C1.26545 5.6208 0.483333 7.13232 0.12303 8.67898C0.0131818 9.14035 0 9.28535 0 9.94883C0 10.7441 0.070303 11.1396 0.285606 11.5834C0.408636 11.8338 0.711818 12.1326 0.971061 12.26C1.25227 12.3963 1.70485 12.427 1.91136 12.3216C2.20136 12.1766 2.44303 11.869 2.48258 11.6053C2.49576 11.5175 2.46939 11.4911 2.33318 11.4428C1.60818 11.1923 1.30939 10.3707 1.42364 8.94262C1.49833 8.01111 1.67409 7.40914 2.13545 6.47762C2.42545 5.88883 2.9703 5.0452 3.42727 4.47838C3.87106 3.92474 4.76303 3.05035 5.31227 2.64171C6.23061 1.95186 7.37303 1.4905 8.15955 1.4905C8.56379 1.4905 8.73076 1.57398 8.89773 1.85959C9.09985 2.2155 9.08227 2.45716 8.76152 3.47656C8.22985 5.17262 7.7597 6.48641 6.51182 9.72914C4.94318 13.8111 4.35879 15.4984 3.80076 17.5547C3.61182 18.2622 3.58985 18.4379 3.66894 18.8114C3.86227 19.721 4.55212 20.235 5.57591 20.2219C5.90546 20.2219 6.33606 20.156 6.54697 20.0769L6.63924 20.0417L6.52939 19.7166C6.32727 19.1322 6.34485 18.2753 6.57333 17.3966C6.92485 16.03 8.01894 12.9323 8.30894 12.4885C8.49788 12.1941 8.80546 12.036 9.18333 12.036H9.36788L9.65349 12.6599C9.80727 13.007 10.15 13.7716 10.4136 14.3647C11.7582 17.4141 12.8127 19.1585 14.043 20.3844C14.9789 21.316 15.9017 21.8213 17.0749 22.0497C18.6611 22.3573 20.1067 22.0849 21.315 21.2544C21.6753 21.0084 22.5145 20.2131 22.5145 20.1208C22.5145 20.09 22.475 19.9978 22.4223 19.9187L22.3344 19.7737L22.04 19.9758C21.6358 20.2526 20.9371 20.5866 20.5153 20.7008C20.032 20.8326 18.995 20.8414 18.538 20.7184C17.4527 20.424 16.4597 19.7122 15.6556 18.64C14.9526 17.7085 14.0738 16.074 13.1994 14.0791C12.9753 13.5694 12.5974 12.7214 12.3558 12.1897C12.1141 11.6581 11.9164 11.2099 11.912 11.1879C11.9076 11.1703 12.3206 10.9243 12.8259 10.6475C14.8164 9.54898 16.0994 8.74929 17.11 7.96717C17.8042 7.4355 19.0389 6.19201 19.3817 5.68671C20.2033 4.46959 20.3879 3.59959 19.9177 3.14701C19.575 2.82626 19.3202 2.97126 18.9203 3.72262C18.6479 4.23232 18.393 4.55747 17.7691 5.18141C15.9017 7.05323 12.9314 8.79762 9.79849 9.86535C9.55682 9.94883 9.3547 10.006 9.34152 9.99277C9.31076 9.96201 9.46894 9.3161 9.62712 8.82838C9.71061 8.57353 10.0577 7.67277 10.3961 6.82913C11.3979 4.3202 11.6879 3.3711 11.7362 2.41323C11.7758 1.62232 11.6308 1.1258 11.2441 0.703983C10.9673 0.40959 10.6114 0.203074 10.2071 0.106407C9.86 0.027317 8.9944 0.027317 8.56379 0.106407Z" fill="white"/>
<path d="M20.8888 8.28352C20.6471 8.33185 20.2824 8.4461 20.0495 8.55155L19.7991 8.6614L19.8211 9.19306C19.8562 10.0806 19.7112 10.6343 18.8676 12.7829C18.0679 14.8173 17.9097 15.3973 17.8701 16.3903C17.8438 17.1241 17.9009 17.4976 18.1162 17.9546C18.6171 19.0091 19.9045 19.3606 21.4073 18.8597C22.2157 18.5917 22.9627 18.1303 23.5515 17.5415C23.7712 17.3262 23.9294 17.1944 23.9382 17.2296C23.947 17.2603 23.9821 17.3834 24.0129 17.5064C24.2941 18.64 25.1685 19.2288 26.3417 19.075C27.2468 18.952 28.2926 18.4599 29.1318 17.7569L29.3998 17.5328L29.4262 17.7612C29.5097 18.4775 29.9007 18.9344 30.5511 19.0706C30.863 19.1365 31.4914 19.1014 31.7198 19.0047C32.1021 18.8422 32.2251 18.6269 32.4009 17.8184C32.7261 16.3156 33.7982 13.9649 34.7517 12.6687C35.5821 11.5394 36.8915 10.6562 37.6341 10.7265C37.9109 10.7529 38.0559 10.8584 38.1658 11.1044C38.2448 11.2758 38.2536 11.3637 38.2317 11.7459C38.2141 11.992 38.1921 12.2425 38.1745 12.3084C38.1482 12.427 38.1526 12.4314 38.3195 12.4314C38.7721 12.4314 39.418 12.1546 39.8267 11.7855C40.7538 10.9419 40.9867 9.63246 40.3364 8.92503C39.9936 8.54716 39.3565 8.34943 38.6623 8.40655C37.7483 8.47685 37.2254 8.78882 35.9029 10.0587C35.4942 10.4497 35.1515 10.7617 35.1427 10.7529C35.1339 10.7397 35.1559 10.5859 35.1954 10.4058C35.4195 9.36443 35.1515 8.58231 34.4968 8.36261C33.93 8.16928 32.8447 8.34943 32.647 8.66579C32.6118 8.72291 32.5767 8.947 32.5591 9.22382C32.4756 10.7749 30.9377 14.5273 29.7294 16.1487C29.2285 16.8122 28.6353 17.2779 27.9762 17.5108C27.6247 17.6338 27.2292 17.647 27.0359 17.5459C26.7591 17.4053 26.6668 16.944 26.7986 16.3332C26.8865 15.8982 27.0754 15.3797 27.7082 13.7935C28.6529 11.4252 28.9297 10.4937 28.9297 9.64564C28.9297 9.11397 28.8286 8.81079 28.5738 8.59109C28.3717 8.41973 27.9982 8.3011 27.6686 8.3011C27.4226 8.3011 26.8426 8.40216 26.4823 8.50322C26.2757 8.56473 26.2494 8.58231 26.2494 8.68776C26.2494 8.75367 26.2801 8.90306 26.3153 9.0261C26.3768 9.21943 26.3768 9.28534 26.3153 9.64125C26.1088 10.854 25.2827 13.0202 24.3161 14.8832C23.7185 16.0388 23.2615 16.6584 22.6595 17.1373C21.7456 17.8667 20.9415 17.9414 20.6251 17.3306C20.5373 17.1549 20.5153 17.0406 20.5021 16.6759C20.4714 15.8806 20.6735 15.1512 21.4951 13.0685C22.0927 11.5482 22.2245 11.1791 22.3871 10.5508C22.5365 9.97079 22.5585 9.41276 22.4442 9.07882C22.352 8.802 22.0839 8.50761 21.8159 8.39776C21.605 8.30549 21.1041 8.24397 20.8888 8.28352Z" fill="white"/>
</svg>
