<svg width="26" height="27" viewBox="0 0 26 27" fill="none" xmlns="http://www.w3.org/2000/svg">
<path fill-rule="evenodd" clip-rule="evenodd" d="M13.0002 0.825195L12.9847 0.825345L12.636 0.832095L12.6202 0.832555C7.32894 1.03914 3.14282 5.52454 3.14282 10.9784V18.1864L2.44809 19.1591L2.44721 19.1603C1.6619 20.2641 1.18019 20.9544 1.0677 21.1542C1.05411 21.1784 1.04179 21.2032 1.03078 21.2286L1.01615 21.2624C0.909005 21.5096 0.933547 21.7942 1.08144 22.0195C1.22934 22.2448 1.48072 22.3804 1.7502 22.3804H8.47735C8.59138 23.4012 9.0485 24.359 9.78178 25.0923C10.635 25.9455 11.7922 26.4248 12.9988 26.4248C14.2055 26.4248 15.3627 25.9455 16.2159 25.0923C16.9492 24.359 17.4063 23.4012 17.5203 22.3804H24.2066C24.2207 22.3812 24.2349 22.3816 24.2491 22.3816C24.443 22.3816 24.6993 22.3061 24.8809 22.0731C25.032 21.8793 25.0482 21.679 25.0502 21.599C25.0538 21.4477 25.0118 21.3314 25.0041 21.31L25.0034 21.3079C24.9799 21.2417 24.9515 21.1893 24.9432 21.1741L24.9427 21.1731C24.9189 21.1294 24.8901 21.083 24.8657 21.0447C24.813 20.9619 24.7354 20.8462 24.6372 20.7025L24.6373 20.7024L24.6297 20.6918L22.8564 18.1872V10.9784C22.8564 5.39513 18.4679 0.825195 13.0002 0.825195ZM15.9049 22.3804H10.0928C10.1962 22.9752 10.4806 23.5283 10.9131 23.9609C11.4663 24.5141 12.2166 24.8248 12.9988 24.8248C13.7811 24.8248 14.5314 24.5141 15.0845 23.9609C15.5171 23.5283 15.8015 22.9752 15.9049 22.3804ZM12.675 2.43164L13.0078 2.4252C17.5401 2.42942 21.2564 6.23239 21.2564 10.9784V18.4417C21.2564 18.6073 21.3078 18.7688 21.4035 18.904L22.7321 20.7804H3.25989C3.40468 20.5753 3.56825 20.3446 3.75071 20.0882L3.75094 20.0878L4.59381 18.9078C4.69072 18.7721 4.74282 18.6096 4.74282 18.4428V10.9784C4.74282 6.34381 8.28807 2.60711 12.675 2.43164Z" fill="#E1E1E1"/>
</svg>
