<svg width="26" height="26" viewBox="0 0 26 26" fill="none" xmlns="http://www.w3.org/2000/svg">
<path fill-rule="evenodd" clip-rule="evenodd" d="M13.0002 0L12.9847 0.000149965L12.636 0.00690001L12.6202 0.00735927C7.32894 0.213945 3.14282 4.69934 3.14282 10.1533V17.3613L2.44809 18.3339L2.44721 18.3351C1.6619 19.4389 1.18019 20.1292 1.0677 20.329C1.05411 20.3532 1.04179 20.378 1.03078 20.4034L1.01615 20.4372C0.909005 20.6844 0.933547 20.969 1.08144 21.1943C1.22934 21.4196 1.48072 21.5553 1.7502 21.5553H8.47735C8.59138 22.576 9.0485 23.5338 9.78178 24.2671C10.635 25.1203 11.7922 25.5996 12.9988 25.5996C14.2055 25.5996 15.3627 25.1203 16.2159 24.2671C16.9492 23.5338 17.4063 22.576 17.5203 21.5553H24.2066C24.2207 21.556 24.2349 21.5564 24.2491 21.5564C24.443 21.5564 24.6993 21.4809 24.8809 21.2479C25.032 21.0541 25.0482 20.8538 25.0502 20.7738C25.0538 20.6225 25.0118 20.5062 25.0041 20.4848L25.0034 20.4827C24.9799 20.4165 24.9515 20.3641 24.9432 20.3489L24.9427 20.3479C24.9189 20.3042 24.8901 20.2578 24.8657 20.2195C24.813 20.1367 24.7354 20.021 24.6372 19.8773L24.6373 19.8773L24.6297 19.8666L22.8564 17.362V10.1533C22.8564 4.56994 18.4679 0 13.0002 0ZM15.9049 21.5553H10.0928C10.1962 22.15 10.4806 22.7031 10.9131 23.1357C11.4663 23.6889 12.2166 23.9996 12.9988 23.9996C13.7811 23.9996 14.5314 23.6889 15.0845 23.1357C15.5171 22.7031 15.8015 22.15 15.9049 21.5553ZM12.675 1.60644L13.0078 1.6C17.5401 1.60423 21.2564 5.4072 21.2564 10.1533V17.6165C21.2564 17.7821 21.3078 17.9436 21.4035 18.0788L22.7321 19.9552H3.25989C3.40468 19.7501 3.56825 19.5194 3.75071 19.263L3.75094 19.2626L4.59381 18.0826C4.69072 17.9469 4.74282 17.7844 4.74282 17.6176V10.1533C4.74282 5.51861 8.28807 1.78191 12.675 1.60644Z" fill="#5F0080"/>
</svg>
