<svg width="28" height="24" viewBox="0 0 28 24" fill="none" xmlns="http://www.w3.org/2000/svg">
<path fill-rule="evenodd" clip-rule="evenodd" d="M24.9269 2.89368C24.3269 2.29334 23.6146 1.8171 22.8305 1.49217C22.0465 1.16724 21.2061 1 20.3574 1C19.5086 1 18.6682 1.16724 17.8842 1.49217C17.1001 1.8171 16.3878 2.29334 15.7879 2.89368L13.9589 4.72168L12.1319 2.89368C10.9201 1.68164 9.27646 1.00062 7.56257 1.00043C5.84867 1.00024 4.2049 1.68091 2.99286 2.89268C1.78082 4.10446 1.0998 5.74808 1.09961 7.46197C1.09942 9.17587 1.78008 10.8196 2.99186 12.0317L4.81986 13.8607L13.2519 22.2947C13.4394 22.4822 13.6937 22.5875 13.9589 22.5875C14.224 22.5875 14.4783 22.4822 14.6659 22.2947L23.0989 13.8607L24.9269 12.0327C25.5271 11.4328 26.0032 10.7205 26.328 9.93653C26.6528 9.15256 26.82 8.31228 26.82 7.46368C26.82 6.61508 26.6528 5.7748 26.328 4.99083C26.0032 4.20687 25.5271 3.49459 24.9269 2.89468V2.89368Z" fill="#FF5A5A" stroke="#FF5A5A" stroke-width="1.7" stroke-linecap="round"/>
</svg>
